HIERARCHY
ROOT hip
{
	OFFSET 0.000000 0.000000 0.000000 
	CHANNELS 6 Xposition Yposition Zposition Xrotation Zrotation Yrotation
	JOINT abdomen
	{
		OFFSET 0.000000 3.402643 0.000000 
		CHANNELS 3 Xrotation Zrotation Yrotation
		JOINT chest
		{
			OFFSET 0.000000 8.438565 -0.680529 
			CHANNELS 3 Xrotation Zrotation Yrotation
			JOINT neck
			{
				OFFSET 0.000000 10.207942 -0.272212 
				CHANNELS 3 Xrotation Zrotation Yrotation
				JOINT head
				{
					OFFSET 0.000000 3.130431 0.000000 
					CHANNELS 3 Xrotation Zrotation Yrotation
					End Site
					{
						OFFSET 0.000000 3.130435 0.000000 
					}
				}
			}
			JOINT lCollar
			{
				OFFSET 3.470700 6.669187 -0.816635 
				CHANNELS 3 Yrotation Zrotation Xrotation
				JOINT lShldr
				{
					OFFSET 3.198488 0.000000 0.000000 
					CHANNELS 3 Zrotation Yrotation Xrotation
					JOINT lForeArm
					{
						OFFSET 10.139888 0.000000 0.000000 
						CHANNELS 3 Yrotation Zrotation Xrotation
						JOINT lHand
						{
							OFFSET 8.370511 0.000000 0.000000 
							CHANNELS 3 Zrotation Yrotation Xrotation
							End Site
							{
								OFFSET 4.083176 0.000000 0.000000 
							}
						}
					}
				}
			}
			JOINT rCollar
			{
				OFFSET -3.470700 6.669187 -0.816635 
				CHANNELS 3 Yrotation Zrotation Xrotation
				JOINT rShldr
				{
					OFFSET -3.198488 0.000000 0.000000 
					CHANNELS 3 Zrotation Yrotation Xrotation
					JOINT rForeArm
					{
						OFFSET -10.139888 0.000000 0.000000 
						CHANNELS 3 Yrotation Zrotation Xrotation
						JOINT rHand
						{
							OFFSET -8.370511 0.000000 0.000000 
							CHANNELS 3 Zrotation Yrotation Xrotation
							End Site
							{
								OFFSET -4.083176 0.000000 0.000000 
							}
						}
					}
				}
			}
		}
	}
	JOINT lThigh
	{
		OFFSET 5.308129 -1.633274 1.361059 
		CHANNELS 3 Xrotation Zrotation Yrotation
		JOINT lShin
		{
			OFFSET -2.041588 -20.007561 0.000000 
			CHANNELS 3 Xrotation Zrotation Yrotation
			JOINT lFoot
			{
				OFFSET 0.000000 -19.190928 -1.224953 
				CHANNELS 3 Xrotation Yrotation Zrotation
				End Site
				{
					OFFSET 0.000000 -2.449906 4.627600 
				}
			}
		}
	}
	JOINT rThigh
	{
		OFFSET -5.308129 -1.633274 1.361059 
		CHANNELS 3 Xrotation Zrotation Yrotation
		JOINT rShin
		{
			OFFSET 2.041588 -20.007561 0.000000 
			CHANNELS 3 Xrotation Zrotation Yrotation
			JOINT rFoot
			{
				OFFSET 0.000000 -19.190928 -1.224953 
				CHANNELS 3 Xrotation Yrotation Zrotation
				End Site
				{
					OFFSET 0.000000 -2.449906 4.627600 
				}
			}
		}
	}
}
MOTION
Frames: 16
Frame Time: 0.033333
8.578194 43.548569 -51.880276 2.041020 -0.117113 -3.597944 21.376099 -0.037596 -0.560020 -20.839844 0.000000 0.000000 8.551134 3.490700 -1.753169 -2.520832 -1.255077 0.218355 -4.754609 -0.109184 -0.002653 -18.148941 4.733832 7.215754 -2.639014 0.104826 -4.281138 7.937203 -7.819526 -0.166170 4.754609 0.109184 -0.002672 26.459330 -15.493953 -19.632328 2.808717 -0.540928 25.384392 -6.507565 4.318109 -0.152664 6.842408 13.823161 8.201480 -5.417572 -3.385329 13.664236 -2.143550 0.566966 -8.082005 0.809233 -7.660207 -10.916187 0.792410 2.680497 -24.214327 -0.926130 -0.227317 1.106042 
8.050194 43.424698 -51.568081 1.748047 0.019522 -4.745495 21.395731 -0.108163 -0.566780 -20.839844 0.000000 0.000000 10.047573 3.088199 -2.012956 -2.520832 -1.255077 0.218355 -4.754609 -0.109184 -0.002653 -25.269413 2.789611 7.509100 -2.639756 0.095568 -4.886535 7.311141 -7.094576 -0.113214 4.754609 0.109184 -0.002672 33.498264 -13.010433 -20.086950 2.805427 -0.533903 24.808273 -5.924369 3.182531 -0.095408 7.876257 14.193867 7.833670 -5.395764 -3.297094 15.259141 -2.105832 0.576723 -8.266560 0.564884 -7.297314 -11.686648 2.733756 2.719212 -23.798033 -1.920531 -0.272175 1.426204 
7.488195 43.286095 -51.260937 1.611330 -0.078094 -6.642835 21.357000 -0.161169 -0.482433 -20.839844 0.000000 0.000000 12.014493 2.508743 -1.749326 -2.520832 -1.255077 0.218355 -4.754609 -0.109184 -0.002653 -33.275238 0.776912 7.906069 -2.640218 0.090346 -5.228291 6.615552 -5.909881 -0.047475 4.754609 0.109184 -0.002672 41.350769 -9.449639 -19.683126 2.787101 -0.506941 23.099386 -5.403334 1.842350 -0.055796 8.382734 14.758465 7.189459 -4.433949 -3.181480 17.687376 -1.895861 0.465305 -6.971690 -0.137364 -6.844229 -9.874798 4.784437 2.722172 -23.667080 -3.494035 -0.411471 2.428894 
6.957663 43.093685 -51.052792 1.738332 -0.439251 -8.841530 21.308308 -0.107179 -0.377225 -20.839844 0.000000 0.000000 14.066463 1.700490 -1.178003 -2.520832 -1.255077 0.218355 -4.754609 -0.109184 -0.002653 -41.843502 -1.828279 9.549830 -2.630934 0.084781 -5.531004 5.767856 -4.432384 0.007876 4.754609 0.109184 -0.002672 49.624874 -5.062120 -17.628906 2.759379 -0.462522 19.349485 -4.709752 0.356127 -0.031098 8.716337 15.433767 6.822231 -3.863719 -3.034235 20.473364 -0.238380 0.196481 -4.147796 -1.854096 -6.086237 -7.084338 8.014071 2.662452 -23.942276 -5.390619 -0.599796 3.600008 
6.503302 42.831722 -50.966976 1.816665 -0.966311 -10.870650 21.347460 -0.004102 -0.263718 -20.839844 0.000000 0.000000 15.963499 1.017691 -0.628522 -2.520832 -1.255077 0.218355 -4.754609 -0.109184 -0.002653 -50.664833 -5.265007 13.718533 -2.640164 0.090942 -5.189234 3.890603 -3.004722 0.035079 4.754609 0.109184 -0.002672 57.904697 -0.263118 -13.798384 2.709964 -0.389910 14.056806 -3.598120 -0.924098 -0.028310 3.318188 16.567232 7.307372 7.700724 -2.312808 20.711487 -1.136802 0.243240 -2.588866 -3.864125 -5.151226 -5.551458 11.959442 2.585279 -23.219913 -7.435322 -0.797527 4.519844 
6.134207 42.544888 -50.956829 1.524004 -1.561947 -12.727348 21.533144 0.095397 -0.140817 -20.839844 0.000000 0.000000 17.544346 0.748045 0.178672 -2.520832 -1.255077 0.218355 -4.754609 -0.109184 -0.002653 -59.362213 -9.279689 20.595533 -2.647292 0.129507 -2.699271 1.196354 -2.487474 0.016675 4.754609 0.109184 -0.002672 66.000473 4.553076 -8.445779 2.686869 -0.326783 9.438013 -2.075531 -1.997624 -0.066967 -4.775075 18.337448 5.058288 23.839781 -2.228285 20.782909 -0.806297 1.202414 -0.969080 -5.192412 -4.313560 -4.997199 15.470141 2.533798 -21.587835 -9.373395 -1.159010 5.528211 
5.857536 42.268711 -50.972561 0.996708 -2.011415 -14.488435 21.767607 0.121961 -0.045905 -20.839844 0.000000 0.000000 18.610868 0.967796 1.213088 -2.520832 -1.255077 0.218355 -4.754609 -0.109184 -0.002653 -67.689735 -13.326626 28.780642 -2.666376 0.209821 1.997378 -0.201072 -3.737723 0.031888 4.754609 0.109184 -0.002672 73.855690 9.272924 -2.080589 2.672875 -0.298934 7.406869 -0.726827 -2.211278 -0.103956 -10.918098 20.087929 5.797299 35.189640 -2.139859 17.048307 2.212469 0.583443 3.557220 -6.061707 -3.816307 -4.636196 18.469244 2.476391 -19.727930 -11.001472 -1.596953 6.562077 
5.644799 42.045841 -50.974102 0.693791 -2.021336 -16.030661 21.914089 0.102385 -0.021941 -20.839844 0.000000 0.000000 19.169783 1.248701 2.279335 -2.520832 -1.255077 0.218355 -4.754609 -0.109184 -0.002653 -74.861244 -17.525534 35.983498 -2.680167 0.257679 5.961973 0.921228 -5.388455 0.051635 4.754609 0.109184 -0.002672 81.180702 14.258989 4.448653 2.673926 -0.306736 7.943923 0.065273 -1.018887 -0.109885 -16.015276 21.308043 6.234034 41.783615 -2.248095 10.599816 3.726720 0.228391 5.958250 -7.024865 -3.775293 -4.484379 20.982475 2.410197 -17.931875 -12.158571 -2.025507 7.018782 
5.455956 41.910290 -50.969021 0.674082 -1.572157 -17.264851 21.972635 0.052854 -0.083960 -20.839844 0.000000 0.000000 19.136614 1.335315 3.062582 -2.520832 -1.255077 0.218355 -4.754609 -0.109184 -0.002653 -80.135727 -22.226269 41.613102 -2.681949 0.263559 7.036219 3.289753 -6.161887 0.011116 4.754609 0.109184 -0.002672 87.864326 19.677258 10.914940 2.686893 -0.326923 9.447777 0.368322 1.275607 -0.056648 -19.790987 21.772284 6.216099 42.750465 -2.541445 4.855245 3.402280 0.069914 3.143172 -8.178471 -4.069375 -4.123414 22.920847 2.349598 -16.718485 -12.813482 -2.336298 7.005195 
5.310250 41.832104 -50.926373 0.664167 -1.015557 -18.185772 22.011595 0.006107 -0.208156 -20.839844 0.000000 0.000000 18.647556 1.579162 3.499523 -2.520832 -1.255077 0.218355 -4.754609 -0.109184 -0.002653 -83.368568 -27.262602 46.809189 -2.670070 0.235419 5.708341 5.581061 -6.368919 -0.040857 4.754609 0.109184 -0.002672 94.181656 25.349649 17.731453 2.676361 -0.323016 9.066904 0.713365 4.614347 0.034894 -21.757210 21.610611 5.966809 38.073353 -2.863417 2.506721 3.100569 0.061361 -1.115830 -9.129519 -4.491467 -3.650937 24.422359 2.304206 -16.029642 -13.279280 -2.480322 6.910456 
5.217858 41.775753 -50.808590 0.498084 -0.703098 -18.902714 22.050539 -0.038493 -0.310543 -20.839844 0.000000 0.000000 18.298038 2.122328 3.992824 -2.520832 -1.255077 0.218355 -4.754609 -0.109184 -0.002653 -84.332138 -32.437626 50.687435 -2.647412 0.184616 2.866940 7.557841 -7.290455 -0.125623 4.754609 0.109184 -0.002672 96.668671 24.899658 26.301212 16.782240 -0.162519 2.775899 2.067579 1.334164 -0.054542 -21.541039 21.130602 4.987458 28.183575 -3.256615 2.336318 4.306747 0.006912 -3.941523 -9.539484 -4.813732 -3.285709 25.460739 2.291731 -15.410761 -13.687919 -2.464938 6.732997 
5.210732 41.692997 -50.569958 0.341816 -0.605458 -19.818167 22.050417 -0.035750 -0.372636 -20.839844 0.000000 0.000000 18.166864 2.742495 5.075244 -2.520832 -1.255077 0.218355 -4.754609 -0.109184 -0.002653 -82.807304 -37.848648 51.045250 -2.637081 0.110829 -1.976273 8.786303 -9.827682 -0.313076 4.754609 0.109184 -0.002672 94.789398 24.170006 34.261604 35.385849 0.422094 -5.844682 1.699018 -4.142454 -0.477006 -17.927551 20.983395 5.341876 11.978659 -3.886295 0.873029 7.892466 -0.091816 -5.177545 -9.789860 -5.046003 -2.778740 26.519665 2.313040 -14.667396 -14.070123 -2.425104 6.699520 
5.337655 41.555424 -50.126263 0.292984 -0.576164 -21.458122 22.001587 0.009469 -0.354212 -20.839844 0.000000 0.000000 18.244677 3.171821 6.992159 -2.520832 -1.255077 0.218355 -4.754609 -0.109184 -0.002653 -78.385315 -43.176693 47.190536 -2.624622 0.034340 -7.454301 9.260669 -13.989114 -0.590955 4.754609 0.109184 -0.002672 92.538712 27.290169 41.471233 48.006306 0.621965 -13.108022 -0.052846 -6.484802 -0.287853 -12.702733 20.854080 7.792347 -5.587446 -4.354334 -2.700356 10.933167 -0.302879 -6.209989 -10.251028 -5.418364 -1.969471 27.971277 2.341160 -13.681763 -14.619122 -2.383964 6.853698 
5.578804 41.397530 -49.413479 0.136725 -0.546874 -24.093191 21.923561 -0.026081 -0.315723 -20.839844 0.000000 0.000000 18.833073 3.344778 9.395194 -2.520832 -1.255077 0.218355 -4.754609 -0.109184 -0.002653 -70.819824 -47.472603 40.071842 -2.621953 -0.049811 -13.254498 8.765759 -19.662792 -0.866931 4.754609 0.109184 -0.002672 90.216805 31.969845 47.531109 58.060585 0.746643 -18.194992 -2.389924 -7.792576 -0.059808 -16.060987 21.517061 9.050677 -2.784946 -4.569074 -8.567100 3.813712 0.072572 -6.967473 -10.551469 -5.973508 -0.550893 29.404282 2.338844 -12.442006 -15.359000 -2.389043 7.094469 
5.904213 41.260963 -48.433151 -0.097662 -0.644530 -27.537966 21.826059 0.002550 -0.198824 -20.839844 0.000000 0.000000 19.758129 3.137730 12.143692 -2.520832 -1.255077 0.218355 -4.754609 -0.109184 -0.002653 -61.285694 -49.765636 30.949135 -4.126179 -0.121768 -18.627117 7.630767 -24.958052 -0.953254 4.754609 0.109184 -0.002672 88.416016 37.227962 52.502262 66.188042 0.801039 -20.572498 -5.200573 -8.779130 0.211462 -16.209480 21.989201 10.037109 -2.100584 -4.660141 -11.437736 1.419334 0.247873 -8.318349 -10.451420 -6.675127 1.362096 30.323557 2.385049 -10.958107 -15.871843 -2.372061 7.358694 
6.281958 41.187355 -47.269562 -0.292996 -0.781240 -31.031164 21.757751 0.073727 -0.138788 -20.839844 0.000000 0.000000 20.800571 2.813763 14.741602 -2.520832 -1.255077 0.218355 -4.754609 -0.109184 -0.002653 -52.175846 -50.099625 22.097666 -11.072266 -0.214981 -23.853252 7.168261 -26.549170 -0.931255 4.754609 0.109184 -0.002672 85.994843 42.626904 55.647114 73.664574 0.815522 -21.381889 -8.161446 -9.160336 0.504569 -14.638031 22.068707 9.422965 -2.404006 -4.645361 -11.034364 4.742714 0.007283 -10.432037 -10.019037 -7.646116 3.285743 30.571568 2.464469 -9.441939 -15.890232 -2.430774 8.054449 
